<svg width="20" height="20" viewBox="0 0 20 20" fill="none" xmlns="http://www.w3.org/2000/svg">
<path id="Icon" fill-rule="evenodd" clip-rule="evenodd" d="M4 0H16C18.2091 0 20 1.79086 20 4V16C20 18.2091 18.2091 20 16 20H4C1.79086 20 0 18.2091 0 16V4C0 1.79086 1.79086 0 4 0ZM13.48 13.48C13.7725 13.1872 13.7725 12.7128 13.48 12.42L11.06 10L13.48 7.58C13.7554 7.28449 13.7472 6.82399 13.4616 6.53838C13.176 6.25277 12.7155 6.24464 12.42 6.52L10 8.94L7.58 6.52C7.28449 6.24464 6.82399 6.25277 6.53838 6.53838C6.25277 6.82399 6.24464 7.28449 6.52 7.58L8.94 10L6.52 12.42C6.22755 12.7128 6.22755 13.1872 6.52 13.48C6.66285 13.6172 6.852 13.6957 7.05 13.7C7.24841 13.6977 7.43828 13.6189 7.58 13.48L10 11.06L12.42 13.48C12.5617 13.6189 12.7516 13.6977 12.95 13.7C13.148 13.6957 13.3372 13.6172 13.48 13.48Z" fill="#283618"/>
</svg>
